<mxfile host="app.diagrams.net" agent="Mozilla/5.0 (Windows NT 10.0; Win64; x64) AppleWebKit/537.36 (KHTML, like Gecko) Chrome/129.0.0.0 Safari/537.36 Edg/129.0.0.0" version="24.8.0">
  <diagram id="C5RBs43oDa-KdzZeNtuy" name="Page-1">
    <mxGraphModel dx="3574" dy="1376" grid="1" gridSize="10" guides="1" tooltips="1" connect="1" arrows="1" fold="1" page="1" pageScale="1" pageWidth="827" pageHeight="1169" math="0" shadow="0">
      <root>
        <mxCell id="WIyWlLk6GJQsqaUBKTNV-0" />
        <mxCell id="WIyWlLk6GJQsqaUBKTNV-1" parent="WIyWlLk6GJQsqaUBKTNV-0" />
        <mxCell id="4s9FGVt-4QpjEJyn6y5s-0" value="Persona" style="swimlane;fontStyle=2;align=center;verticalAlign=top;childLayout=stackLayout;horizontal=1;startSize=26;horizontalStack=0;resizeParent=1;resizeLast=0;collapsible=1;marginBottom=0;rounded=0;shadow=0;strokeWidth=1;" parent="WIyWlLk6GJQsqaUBKTNV-1" vertex="1">
          <mxGeometry x="220" y="120" width="160" height="140" as="geometry">
            <mxRectangle x="230" y="140" width="160" height="26" as="alternateBounds" />
          </mxGeometry>
        </mxCell>
        <mxCell id="4s9FGVt-4QpjEJyn6y5s-1" value="id_persona: String &#xa;nombre: String &#xa;teléfono: String &#xa;correo: String" style="text;align=left;verticalAlign=top;spacingLeft=4;spacingRight=4;overflow=hidden;rotatable=0;points=[[0,0.5],[1,0.5]];portConstraint=eastwest;" parent="4s9FGVt-4QpjEJyn6y5s-0" vertex="1">
          <mxGeometry y="26" width="160" height="74" as="geometry" />
        </mxCell>
        <mxCell id="4s9FGVt-4QpjEJyn6y5s-4" value="" style="line;html=1;strokeWidth=1;align=left;verticalAlign=middle;spacingTop=-1;spacingLeft=3;spacingRight=3;rotatable=0;labelPosition=right;points=[];portConstraint=eastwest;" parent="4s9FGVt-4QpjEJyn6y5s-0" vertex="1">
          <mxGeometry y="100" width="160" height="8" as="geometry" />
        </mxCell>
        <mxCell id="4s9FGVt-4QpjEJyn6y5s-5" value="consultarDatos()" style="text;align=left;verticalAlign=top;spacingLeft=4;spacingRight=4;overflow=hidden;rotatable=0;points=[[0,0.5],[1,0.5]];portConstraint=eastwest;" parent="4s9FGVt-4QpjEJyn6y5s-0" vertex="1">
          <mxGeometry y="108" width="160" height="30" as="geometry" />
        </mxCell>
        <mxCell id="4s9FGVt-4QpjEJyn6y5s-6" value="Empleado" style="swimlane;fontStyle=0;align=center;verticalAlign=top;childLayout=stackLayout;horizontal=1;startSize=26;horizontalStack=0;resizeParent=1;resizeLast=0;collapsible=1;marginBottom=0;rounded=0;shadow=0;strokeWidth=1;" parent="WIyWlLk6GJQsqaUBKTNV-1" vertex="1">
          <mxGeometry x="120" y="360" width="160" height="130" as="geometry">
            <mxRectangle x="130" y="380" width="160" height="26" as="alternateBounds" />
          </mxGeometry>
        </mxCell>
        <mxCell id="4s9FGVt-4QpjEJyn6y5s-7" value="id_empleado: String&#xa;cargo: String&#xa;fecha_contratación: String&#xa;" style="text;align=left;verticalAlign=top;spacingLeft=4;spacingRight=4;overflow=hidden;rotatable=0;points=[[0,0.5],[1,0.5]];portConstraint=eastwest;" parent="4s9FGVt-4QpjEJyn6y5s-6" vertex="1">
          <mxGeometry y="26" width="160" height="64" as="geometry" />
        </mxCell>
        <mxCell id="4s9FGVt-4QpjEJyn6y5s-8" value="" style="line;html=1;strokeWidth=1;align=left;verticalAlign=middle;spacingTop=-1;spacingLeft=3;spacingRight=3;rotatable=0;labelPosition=right;points=[];portConstraint=eastwest;" parent="4s9FGVt-4QpjEJyn6y5s-6" vertex="1">
          <mxGeometry y="90" width="160" height="8" as="geometry" />
        </mxCell>
        <mxCell id="4s9FGVt-4QpjEJyn6y5s-10" value="consultarDatos()" style="text;align=left;verticalAlign=top;spacingLeft=4;spacingRight=4;overflow=hidden;rotatable=0;points=[[0,0.5],[1,0.5]];portConstraint=eastwest;" parent="4s9FGVt-4QpjEJyn6y5s-6" vertex="1">
          <mxGeometry y="98" width="160" height="26" as="geometry" />
        </mxCell>
        <mxCell id="4s9FGVt-4QpjEJyn6y5s-11" value="" style="endArrow=block;endSize=10;endFill=0;shadow=0;strokeWidth=1;rounded=0;curved=0;edgeStyle=elbowEdgeStyle;elbow=vertical;" parent="WIyWlLk6GJQsqaUBKTNV-1" source="4s9FGVt-4QpjEJyn6y5s-6" target="4s9FGVt-4QpjEJyn6y5s-0" edge="1">
          <mxGeometry width="160" relative="1" as="geometry">
            <mxPoint x="200" y="203" as="sourcePoint" />
            <mxPoint x="200" y="203" as="targetPoint" />
          </mxGeometry>
        </mxCell>
        <mxCell id="4s9FGVt-4QpjEJyn6y5s-12" value="Propietario" style="swimlane;fontStyle=0;align=center;verticalAlign=top;childLayout=stackLayout;horizontal=1;startSize=26;horizontalStack=0;resizeParent=1;resizeLast=0;collapsible=1;marginBottom=0;rounded=0;shadow=0;strokeWidth=1;" parent="WIyWlLk6GJQsqaUBKTNV-1" vertex="1">
          <mxGeometry x="320" y="360" width="164" height="200" as="geometry">
            <mxRectangle x="340" y="380" width="170" height="26" as="alternateBounds" />
          </mxGeometry>
        </mxCell>
        <mxCell id="4s9FGVt-4QpjEJyn6y5s-13" value="profesión: String&#xa;oficio: String&#xa;salario:String&#xa;propiedades[]: Array&#xa;visitantes[]: Array&#xa;" style="text;align=left;verticalAlign=top;spacingLeft=4;spacingRight=4;overflow=hidden;rotatable=0;points=[[0,0.5],[1,0.5]];portConstraint=eastwest;" parent="4s9FGVt-4QpjEJyn6y5s-12" vertex="1">
          <mxGeometry y="26" width="164" height="80" as="geometry" />
        </mxCell>
        <mxCell id="4s9FGVt-4QpjEJyn6y5s-14" value="" style="line;html=1;strokeWidth=1;align=left;verticalAlign=middle;spacingTop=-1;spacingLeft=3;spacingRight=3;rotatable=0;labelPosition=right;points=[];portConstraint=eastwest;" parent="4s9FGVt-4QpjEJyn6y5s-12" vertex="1">
          <mxGeometry y="106" width="164" height="8" as="geometry" />
        </mxCell>
        <mxCell id="wqUgfGe4c6Do4SkLT-7k-0" value="autorizarVisitante(Visitante visitante)&#xa;consultarCuotaMensual()&#xa;consultarSaldo()&#xa;consultarZonasComunes()" style="text;align=left;verticalAlign=top;spacingLeft=4;spacingRight=4;overflow=hidden;rotatable=0;points=[[0,0.5],[1,0.5]];portConstraint=eastwest;" parent="4s9FGVt-4QpjEJyn6y5s-12" vertex="1">
          <mxGeometry y="114" width="164" height="72" as="geometry" />
        </mxCell>
        <mxCell id="4s9FGVt-4QpjEJyn6y5s-15" value="" style="endArrow=block;endSize=10;endFill=0;shadow=0;strokeWidth=1;rounded=0;curved=0;edgeStyle=elbowEdgeStyle;elbow=vertical;" parent="WIyWlLk6GJQsqaUBKTNV-1" source="4s9FGVt-4QpjEJyn6y5s-12" edge="1">
          <mxGeometry width="160" relative="1" as="geometry">
            <mxPoint x="210" y="373" as="sourcePoint" />
            <mxPoint x="270" y="260" as="targetPoint" />
          </mxGeometry>
        </mxCell>
        <mxCell id="4s9FGVt-4QpjEJyn6y5s-16" value="Propiedad" style="swimlane;fontStyle=2;align=center;verticalAlign=top;childLayout=stackLayout;horizontal=1;startSize=26;horizontalStack=0;resizeParent=1;resizeLast=0;collapsible=1;marginBottom=0;rounded=0;shadow=0;strokeWidth=1;" parent="WIyWlLk6GJQsqaUBKTNV-1" vertex="1">
          <mxGeometry x="850" y="40" width="160" height="344" as="geometry">
            <mxRectangle x="230" y="140" width="160" height="26" as="alternateBounds" />
          </mxGeometry>
        </mxCell>
        <mxCell id="ymKaB4rDWMVnilgOQe-0-3" value="id_propiedad: String&#xa;dirección: String&#xa;tamaño_m2: Double&#xa;cuota_mensual: Double&#xa;propietarios[]: Array&#xa;facturas[]: Array&#xa;multas[]: Array&#xa;" style="text;align=left;verticalAlign=top;spacingLeft=4;spacingRight=4;overflow=hidden;rotatable=0;points=[[0,0.5],[1,0.5]];portConstraint=eastwest;" vertex="1" parent="4s9FGVt-4QpjEJyn6y5s-16">
          <mxGeometry y="26" width="160" height="114" as="geometry" />
        </mxCell>
        <mxCell id="4s9FGVt-4QpjEJyn6y5s-17" value="id_propiedad: String&#xa;dirección: String&#xa;tamaño_m2: Double&#xa;cuota_mensual: Double&#xa;propietarios[]: Array&#xa;facturas[]: Array&#xa;multas[]: Array&#xa;" style="text;align=left;verticalAlign=top;spacingLeft=4;spacingRight=4;overflow=hidden;rotatable=0;points=[[0,0.5],[1,0.5]];portConstraint=eastwest;" parent="4s9FGVt-4QpjEJyn6y5s-16" vertex="1">
          <mxGeometry y="140" width="160" height="114" as="geometry" />
        </mxCell>
        <mxCell id="4s9FGVt-4QpjEJyn6y5s-20" value="" style="line;html=1;strokeWidth=1;align=left;verticalAlign=middle;spacingTop=-1;spacingLeft=3;spacingRight=3;rotatable=0;labelPosition=right;points=[];portConstraint=eastwest;" parent="4s9FGVt-4QpjEJyn6y5s-16" vertex="1">
          <mxGeometry y="254" width="160" height="8" as="geometry" />
        </mxCell>
        <mxCell id="4s9FGVt-4QpjEJyn6y5s-21" value="consultarFacturas()&#xa;consultarMultas()&#xa;calcularSaldoTotal()&#xa;asignarPropietario(Propietario propietario)&#xa;emitirFactura()&#xa;&#xa;" style="text;align=left;verticalAlign=top;spacingLeft=4;spacingRight=4;overflow=hidden;rotatable=0;points=[[0,0.5],[1,0.5]];portConstraint=eastwest;" parent="4s9FGVt-4QpjEJyn6y5s-16" vertex="1">
          <mxGeometry y="262" width="160" height="82" as="geometry" />
        </mxCell>
        <mxCell id="4s9FGVt-4QpjEJyn6y5s-22" value="Casa" style="swimlane;fontStyle=0;align=center;verticalAlign=top;childLayout=stackLayout;horizontal=1;startSize=26;horizontalStack=0;resizeParent=1;resizeLast=0;collapsible=1;marginBottom=0;rounded=0;shadow=0;strokeWidth=1;" parent="WIyWlLk6GJQsqaUBKTNV-1" vertex="1">
          <mxGeometry x="540" y="430" width="390" height="150" as="geometry">
            <mxRectangle x="130" y="380" width="160" height="26" as="alternateBounds" />
          </mxGeometry>
        </mxCell>
        <mxCell id="4s9FGVt-4QpjEJyn6y5s-23" value="jardín: booleano&#xa;número_niveles: Int&#xa;área_privada_m2: Doble" style="text;align=left;verticalAlign=top;spacingLeft=4;spacingRight=4;overflow=hidden;rotatable=0;points=[[0,0.5],[1,0.5]];portConstraint=eastwest;" parent="4s9FGVt-4QpjEJyn6y5s-22" vertex="1">
          <mxGeometry y="26" width="390" height="64" as="geometry" />
        </mxCell>
        <mxCell id="4s9FGVt-4QpjEJyn6y5s-24" value="" style="line;html=1;strokeWidth=1;align=left;verticalAlign=middle;spacingTop=-1;spacingLeft=3;spacingRight=3;rotatable=0;labelPosition=right;points=[];portConstraint=eastwest;" parent="4s9FGVt-4QpjEJyn6y5s-22" vertex="1">
          <mxGeometry y="90" width="390" height="8" as="geometry" />
        </mxCell>
        <mxCell id="4s9FGVt-4QpjEJyn6y5s-26" value="consultarDetallesCasa()&#xa;modificarDetallesCasa(Boolean jardin, Int niveles, Double areaPrivada)&#xa;" style="text;align=left;verticalAlign=top;spacingLeft=4;spacingRight=4;overflow=hidden;rotatable=0;points=[[0,0.5],[1,0.5]];portConstraint=eastwest;" parent="4s9FGVt-4QpjEJyn6y5s-22" vertex="1">
          <mxGeometry y="98" width="390" height="42" as="geometry" />
        </mxCell>
        <mxCell id="4s9FGVt-4QpjEJyn6y5s-27" value="" style="endArrow=block;endSize=10;endFill=0;shadow=0;strokeWidth=1;rounded=0;curved=0;edgeStyle=elbowEdgeStyle;elbow=vertical;entryX=0.372;entryY=0.946;entryDx=0;entryDy=0;entryPerimeter=0;" parent="WIyWlLk6GJQsqaUBKTNV-1" source="4s9FGVt-4QpjEJyn6y5s-22" target="4s9FGVt-4QpjEJyn6y5s-21" edge="1">
          <mxGeometry width="160" relative="1" as="geometry">
            <mxPoint x="680" y="203" as="sourcePoint" />
            <mxPoint x="680" y="203" as="targetPoint" />
          </mxGeometry>
        </mxCell>
        <mxCell id="4s9FGVt-4QpjEJyn6y5s-28" value="ZonaComún" style="swimlane;fontStyle=0;align=center;verticalAlign=top;childLayout=stackLayout;horizontal=1;startSize=26;horizontalStack=0;resizeParent=1;resizeLast=0;collapsible=1;marginBottom=0;rounded=0;shadow=0;strokeWidth=1;" parent="WIyWlLk6GJQsqaUBKTNV-1" vertex="1">
          <mxGeometry x="960" y="420" width="350" height="178" as="geometry">
            <mxRectangle x="340" y="380" width="170" height="26" as="alternateBounds" />
          </mxGeometry>
        </mxCell>
        <mxCell id="4s9FGVt-4QpjEJyn6y5s-29" value="id_zona: String&#xa;nombre: String&#xa;horario_disponible: String&#xa;capacidad: Int" style="text;align=left;verticalAlign=top;spacingLeft=4;spacingRight=4;overflow=hidden;rotatable=0;points=[[0,0.5],[1,0.5]];portConstraint=eastwest;" parent="4s9FGVt-4QpjEJyn6y5s-28" vertex="1">
          <mxGeometry y="26" width="350" height="74" as="geometry" />
        </mxCell>
        <mxCell id="4s9FGVt-4QpjEJyn6y5s-30" value="" style="line;html=1;strokeWidth=1;align=left;verticalAlign=middle;spacingTop=-1;spacingLeft=3;spacingRight=3;rotatable=0;labelPosition=right;points=[];portConstraint=eastwest;" parent="4s9FGVt-4QpjEJyn6y5s-28" vertex="1">
          <mxGeometry y="100" width="350" height="8" as="geometry" />
        </mxCell>
        <mxCell id="wqUgfGe4c6Do4SkLT-7k-10" value="consultarDisponibilidad()&#xa;reservarZona(Propietario propietario, String fecha, String hora)" style="text;align=left;verticalAlign=top;spacingLeft=4;spacingRight=4;overflow=hidden;rotatable=0;points=[[0,0.5],[1,0.5]];portConstraint=eastwest;" parent="4s9FGVt-4QpjEJyn6y5s-28" vertex="1">
          <mxGeometry y="108" width="350" height="70" as="geometry" />
        </mxCell>
        <mxCell id="4s9FGVt-4QpjEJyn6y5s-31" value="" style="endArrow=block;endSize=10;endFill=0;shadow=0;strokeWidth=1;rounded=0;curved=0;edgeStyle=elbowEdgeStyle;elbow=vertical;" parent="WIyWlLk6GJQsqaUBKTNV-1" source="4s9FGVt-4QpjEJyn6y5s-28" target="4s9FGVt-4QpjEJyn6y5s-16" edge="1">
          <mxGeometry width="160" relative="1" as="geometry">
            <mxPoint x="690" y="373" as="sourcePoint" />
            <mxPoint x="790" y="271" as="targetPoint" />
          </mxGeometry>
        </mxCell>
        <mxCell id="4s9FGVt-4QpjEJyn6y5s-32" value="Factura" style="swimlane;fontStyle=2;align=center;verticalAlign=top;childLayout=stackLayout;horizontal=1;startSize=26;horizontalStack=0;resizeParent=1;resizeLast=0;collapsible=1;marginBottom=0;rounded=0;shadow=0;strokeWidth=1;" parent="WIyWlLk6GJQsqaUBKTNV-1" vertex="1">
          <mxGeometry x="-340" y="60" width="300" height="260" as="geometry">
            <mxRectangle x="230" y="140" width="160" height="26" as="alternateBounds" />
          </mxGeometry>
        </mxCell>
        <mxCell id="4s9FGVt-4QpjEJyn6y5s-33" value="id_factura: String&#xa;mes: String&#xa;fecha_vencimiento: String (formato DD-MM-AAAA).&#xa;total: Double&#xa;pagado: Boolean&#xa;saldo_anterior: Double&#xa;cuota mensual: Double&#xa;recargos: Double&#xa;id_propiedad: String" style="text;align=left;verticalAlign=top;spacingLeft=4;spacingRight=4;overflow=hidden;rotatable=0;points=[[0,0.5],[1,0.5]];portConstraint=eastwest;" parent="4s9FGVt-4QpjEJyn6y5s-32" vertex="1">
          <mxGeometry y="26" width="300" height="154" as="geometry" />
        </mxCell>
        <mxCell id="4s9FGVt-4QpjEJyn6y5s-34" value="" style="line;html=1;strokeWidth=1;align=left;verticalAlign=middle;spacingTop=-1;spacingLeft=3;spacingRight=3;rotatable=0;labelPosition=right;points=[];portConstraint=eastwest;" parent="4s9FGVt-4QpjEJyn6y5s-32" vertex="1">
          <mxGeometry y="180" width="300" height="8" as="geometry" />
        </mxCell>
        <mxCell id="4s9FGVt-4QpjEJyn6y5s-35" value="consultarFactura()&#xa;pagarFactura()&#xa;calcularTotal()" style="text;align=left;verticalAlign=top;spacingLeft=4;spacingRight=4;overflow=hidden;rotatable=0;points=[[0,0.5],[1,0.5]];portConstraint=eastwest;" parent="4s9FGVt-4QpjEJyn6y5s-32" vertex="1">
          <mxGeometry y="188" width="300" height="70" as="geometry" />
        </mxCell>
        <mxCell id="4s9FGVt-4QpjEJyn6y5s-36" value="Multa" style="swimlane;fontStyle=0;align=center;verticalAlign=top;childLayout=stackLayout;horizontal=1;startSize=26;horizontalStack=0;resizeParent=1;resizeLast=0;collapsible=1;marginBottom=0;rounded=0;shadow=0;strokeWidth=1;" parent="WIyWlLk6GJQsqaUBKTNV-1" vertex="1">
          <mxGeometry x="570" y="680" width="213" height="210" as="geometry">
            <mxRectangle x="130" y="380" width="160" height="26" as="alternateBounds" />
          </mxGeometry>
        </mxCell>
        <mxCell id="4s9FGVt-4QpjEJyn6y5s-37" value="id_multa: String&#xa;fecha: String (formato DD-MM-AAAA).&#xa;motivo: String&#xa;monto: Double&#xa;pagado: Boolean&#xa;id_propiedad: String&#xa;" style="text;align=left;verticalAlign=top;spacingLeft=4;spacingRight=4;overflow=hidden;rotatable=0;points=[[0,0.5],[1,0.5]];portConstraint=eastwest;" parent="4s9FGVt-4QpjEJyn6y5s-36" vertex="1">
          <mxGeometry y="26" width="213" height="114" as="geometry" />
        </mxCell>
        <mxCell id="4s9FGVt-4QpjEJyn6y5s-38" value="" style="line;html=1;strokeWidth=1;align=left;verticalAlign=middle;spacingTop=-1;spacingLeft=3;spacingRight=3;rotatable=0;labelPosition=right;points=[];portConstraint=eastwest;" parent="4s9FGVt-4QpjEJyn6y5s-36" vertex="1">
          <mxGeometry y="140" width="213" height="8" as="geometry" />
        </mxCell>
        <mxCell id="4s9FGVt-4QpjEJyn6y5s-40" value="consultarMulta()&#xa;pagarMulta()" style="text;align=left;verticalAlign=top;spacingLeft=4;spacingRight=4;overflow=hidden;rotatable=0;points=[[0,0.5],[1,0.5]];portConstraint=eastwest;" parent="4s9FGVt-4QpjEJyn6y5s-36" vertex="1">
          <mxGeometry y="148" width="213" height="36" as="geometry" />
        </mxCell>
        <mxCell id="wqUgfGe4c6Do4SkLT-7k-1" value="Visitante" style="swimlane;fontStyle=0;align=center;verticalAlign=top;childLayout=stackLayout;horizontal=1;startSize=26;horizontalStack=0;resizeParent=1;resizeLast=0;collapsible=1;marginBottom=0;rounded=0;shadow=0;strokeWidth=1;" parent="WIyWlLk6GJQsqaUBKTNV-1" vertex="1">
          <mxGeometry x="-80" y="360" width="164" height="180" as="geometry">
            <mxRectangle x="340" y="380" width="170" height="26" as="alternateBounds" />
          </mxGeometry>
        </mxCell>
        <mxCell id="wqUgfGe4c6Do4SkLT-7k-2" value="autorizado_por: Propietario &#xa;fecha_entrada: String &#xa;hora_entrada: String &#xa;duración_autorizada: String&#xa;" style="text;align=left;verticalAlign=top;spacingLeft=4;spacingRight=4;overflow=hidden;rotatable=0;points=[[0,0.5],[1,0.5]];portConstraint=eastwest;" parent="wqUgfGe4c6Do4SkLT-7k-1" vertex="1">
          <mxGeometry y="26" width="164" height="74" as="geometry" />
        </mxCell>
        <mxCell id="wqUgfGe4c6Do4SkLT-7k-3" value="" style="line;html=1;strokeWidth=1;align=left;verticalAlign=middle;spacingTop=-1;spacingLeft=3;spacingRight=3;rotatable=0;labelPosition=right;points=[];portConstraint=eastwest;" parent="wqUgfGe4c6Do4SkLT-7k-1" vertex="1">
          <mxGeometry y="100" width="164" height="8" as="geometry" />
        </mxCell>
        <mxCell id="wqUgfGe4c6Do4SkLT-7k-4" value="consultarAutorización()&#xa;registrarEntrada()&#xa;consultarSaldo()&#xa;registrarSalida()" style="text;align=left;verticalAlign=top;spacingLeft=4;spacingRight=4;overflow=hidden;rotatable=0;points=[[0,0.5],[1,0.5]];portConstraint=eastwest;" parent="wqUgfGe4c6Do4SkLT-7k-1" vertex="1">
          <mxGeometry y="108" width="164" height="72" as="geometry" />
        </mxCell>
        <mxCell id="wqUgfGe4c6Do4SkLT-7k-5" value="Administrador" style="swimlane;fontStyle=0;align=center;verticalAlign=top;childLayout=stackLayout;horizontal=1;startSize=26;horizontalStack=0;resizeParent=1;resizeLast=0;collapsible=1;marginBottom=0;rounded=0;shadow=0;strokeWidth=1;" parent="WIyWlLk6GJQsqaUBKTNV-1" vertex="1">
          <mxGeometry x="-100" y="600" width="280" height="180" as="geometry">
            <mxRectangle x="340" y="380" width="170" height="26" as="alternateBounds" />
          </mxGeometry>
        </mxCell>
        <mxCell id="wqUgfGe4c6Do4SkLT-7k-6" value="facturasEmitidas[]: Array &#xa;multasEmitidas[]: Array &#xa;&#xa;" style="text;align=left;verticalAlign=top;spacingLeft=4;spacingRight=4;overflow=hidden;rotatable=0;points=[[0,0.5],[1,0.5]];portConstraint=eastwest;" parent="wqUgfGe4c6Do4SkLT-7k-5" vertex="1">
          <mxGeometry y="26" width="280" height="54" as="geometry" />
        </mxCell>
        <mxCell id="wqUgfGe4c6Do4SkLT-7k-7" value="" style="line;html=1;strokeWidth=1;align=left;verticalAlign=middle;spacingTop=-1;spacingLeft=3;spacingRight=3;rotatable=0;labelPosition=right;points=[];portConstraint=eastwest;" parent="wqUgfGe4c6Do4SkLT-7k-5" vertex="1">
          <mxGeometry y="80" width="280" height="8" as="geometry" />
        </mxCell>
        <mxCell id="wqUgfGe4c6Do4SkLT-7k-8" value="emitirFactura(Propiedad propiedad)&#xa;aplicarMulta(Propietario propietario, Multa multa)&#xa;consultarMultasPendientes()&#xa;gestionarSeguridad()" style="text;align=left;verticalAlign=top;spacingLeft=4;spacingRight=4;overflow=hidden;rotatable=0;points=[[0,0.5],[1,0.5]];portConstraint=eastwest;" parent="wqUgfGe4c6Do4SkLT-7k-5" vertex="1">
          <mxGeometry y="88" width="280" height="72" as="geometry" />
        </mxCell>
        <mxCell id="wqUgfGe4c6Do4SkLT-7k-11" value="Seguridad" style="swimlane;fontStyle=2;align=center;verticalAlign=top;childLayout=stackLayout;horizontal=1;startSize=26;horizontalStack=0;resizeParent=1;resizeLast=0;collapsible=1;marginBottom=0;rounded=0;shadow=0;strokeWidth=1;" parent="WIyWlLk6GJQsqaUBKTNV-1" vertex="1">
          <mxGeometry x="1400" y="200" width="290" height="210" as="geometry">
            <mxRectangle x="230" y="140" width="160" height="26" as="alternateBounds" />
          </mxGeometry>
        </mxCell>
        <mxCell id="wqUgfGe4c6Do4SkLT-7k-12" value="id_evento: String&#xa;tipo_evento: String (autorización, emergencia, etc.).&#xa;fecha_evento: String (formato DD-MM-AAAA).&#xa;hora_evento: String&#xa;propietario: String&#xa;visitante: (si aplica)." style="text;align=left;verticalAlign=top;spacingLeft=4;spacingRight=4;overflow=hidden;rotatable=0;points=[[0,0.5],[1,0.5]];portConstraint=eastwest;" parent="wqUgfGe4c6Do4SkLT-7k-11" vertex="1">
          <mxGeometry y="26" width="290" height="114" as="geometry" />
        </mxCell>
        <mxCell id="wqUgfGe4c6Do4SkLT-7k-13" value="" style="line;html=1;strokeWidth=1;align=left;verticalAlign=middle;spacingTop=-1;spacingLeft=3;spacingRight=3;rotatable=0;labelPosition=right;points=[];portConstraint=eastwest;" parent="wqUgfGe4c6Do4SkLT-7k-11" vertex="1">
          <mxGeometry y="140" width="290" height="8" as="geometry" />
        </mxCell>
        <mxCell id="wqUgfGe4c6Do4SkLT-7k-14" value="registrarEvento()&#xa;consultarEventos()" style="text;align=left;verticalAlign=top;spacingLeft=4;spacingRight=4;overflow=hidden;rotatable=0;points=[[0,0.5],[1,0.5]];portConstraint=eastwest;" parent="wqUgfGe4c6Do4SkLT-7k-11" vertex="1">
          <mxGeometry y="148" width="290" height="50" as="geometry" />
        </mxCell>
        <mxCell id="ymKaB4rDWMVnilgOQe-0-0" value="" style="endArrow=block;endSize=10;endFill=0;shadow=0;strokeWidth=1;rounded=0;curved=0;edgeStyle=elbowEdgeStyle;elbow=vertical;entryX=0.671;entryY=1.08;entryDx=0;entryDy=0;entryPerimeter=0;" edge="1" parent="WIyWlLk6GJQsqaUBKTNV-1" target="4s9FGVt-4QpjEJyn6y5s-5">
          <mxGeometry width="160" relative="1" as="geometry">
            <mxPoint y="350" as="sourcePoint" />
            <mxPoint x="300" y="270" as="targetPoint" />
          </mxGeometry>
        </mxCell>
        <mxCell id="ymKaB4rDWMVnilgOQe-0-2" value="" style="endArrow=block;endSize=10;endFill=0;shadow=0;strokeWidth=1;rounded=0;curved=0;edgeStyle=elbowEdgeStyle;elbow=vertical;entryX=0.479;entryY=1.006;entryDx=0;entryDy=0;entryPerimeter=0;exitX=0.5;exitY=0;exitDx=0;exitDy=0;" edge="1" parent="WIyWlLk6GJQsqaUBKTNV-1" source="wqUgfGe4c6Do4SkLT-7k-5" target="wqUgfGe4c6Do4SkLT-7k-4">
          <mxGeometry width="160" relative="1" as="geometry">
            <mxPoint x="10" y="360" as="sourcePoint" />
            <mxPoint x="337" y="270" as="targetPoint" />
          </mxGeometry>
        </mxCell>
        <mxCell id="ymKaB4rDWMVnilgOQe-0-5" value="" style="endArrow=diamondThin;endFill=1;endSize=24;html=1;rounded=0;fontSize=12;curved=1;exitX=-0.021;exitY=0.085;exitDx=0;exitDy=0;exitPerimeter=0;entryX=1;entryY=0;entryDx=0;entryDy=0;" edge="1" parent="WIyWlLk6GJQsqaUBKTNV-1" source="4s9FGVt-4QpjEJyn6y5s-17" target="4s9FGVt-4QpjEJyn6y5s-12">
          <mxGeometry width="160" relative="1" as="geometry">
            <mxPoint x="650" y="560" as="sourcePoint" />
            <mxPoint x="810" y="560" as="targetPoint" />
          </mxGeometry>
        </mxCell>
        <mxCell id="ymKaB4rDWMVnilgOQe-0-6" value="" style="endArrow=open;endFill=1;endSize=12;html=1;rounded=0;fontSize=12;curved=1;exitX=-0.003;exitY=0.823;exitDx=0;exitDy=0;exitPerimeter=0;entryX=0.985;entryY=0.946;entryDx=0;entryDy=0;entryPerimeter=0;" edge="1" parent="WIyWlLk6GJQsqaUBKTNV-1" source="wqUgfGe4c6Do4SkLT-7k-12" target="4s9FGVt-4QpjEJyn6y5s-17">
          <mxGeometry width="160" relative="1" as="geometry">
            <mxPoint x="840" y="590" as="sourcePoint" />
            <mxPoint x="1000" y="590" as="targetPoint" />
          </mxGeometry>
        </mxCell>
        <mxCell id="ymKaB4rDWMVnilgOQe-0-8" value="" style="endArrow=open;endFill=1;endSize=12;html=1;rounded=0;fontSize=12;curved=1;exitX=0.5;exitY=0;exitDx=0;exitDy=0;entryX=0.5;entryY=1;entryDx=0;entryDy=0;" edge="1" parent="WIyWlLk6GJQsqaUBKTNV-1" source="4s9FGVt-4QpjEJyn6y5s-36" target="4s9FGVt-4QpjEJyn6y5s-12">
          <mxGeometry width="160" relative="1" as="geometry">
            <mxPoint x="840" y="720" as="sourcePoint" />
            <mxPoint x="1000" y="720" as="targetPoint" />
          </mxGeometry>
        </mxCell>
        <mxCell id="ymKaB4rDWMVnilgOQe-0-9" value="" style="endArrow=open;endFill=1;endSize=12;html=1;rounded=0;fontSize=12;curved=1;exitX=1;exitY=0.5;exitDx=0;exitDy=0;entryX=-0.024;entryY=0.772;entryDx=0;entryDy=0;entryPerimeter=0;" edge="1" parent="WIyWlLk6GJQsqaUBKTNV-1" source="4s9FGVt-4QpjEJyn6y5s-33" target="4s9FGVt-4QpjEJyn6y5s-1">
          <mxGeometry width="160" relative="1" as="geometry">
            <mxPoint x="1020" y="650" as="sourcePoint" />
            <mxPoint x="1180" y="650" as="targetPoint" />
          </mxGeometry>
        </mxCell>
      </root>
    </mxGraphModel>
  </diagram>
</mxfile>
